# Object Export From Tinkercad Server 2015

mtllib obj.mtl

o obj_0
v -55 		-66.382 		42.584
v -55 		-70.742 		41.95
v -22.658 		-95 		73.292
v -22.658 		-97.18 		72.975
v -55 		-68.792 		50
v -55 		-69.537 		45.658
v -22.658 		-96.205 		77
v -22.658 		-96.577 		74.829
v -55 		-76.59 		50
v -55 		-72.691 		47.95
v -22.658 		-100.104 		77
v -22.658 		-98.154 		75.975
v -22.658 		-101.309 		73.292
v -22.658 		-99.732 		74.829
v -22.658 		-98.154 		71
v -22.658 		-99.129 		72.975
v -55 		-79 		42.584
v -55 		-75.846 		45.658
v -55 		-72.691 		38
v -55 		-74.641 		41.95
v -23.955 		-24.749 		59.749
v -33.658 		-36.691 		29.292
v -33.658 		-38.871 		28.975
v -1 		-87.382 		42.584
v -24.882 		-16.1595 		47.1245
v -1 		-91.742 		41.95
v -24.576 		-16.1938 		47.0902
v -1 		-89.792 		50
v -1 		-90.537 		45.658
v -23.955 		22.627 		8.13
v -20.645 		-26.449 		58.048
v -1 		-97.59 		50
v -21.527 		25.996 		11.498
v -33.658 		-37.896 		33
v -33.658 		-38.268 		30.829
v -1 		-93.691 		47.95
v -21.55 		-27.089 		57.408
v -1 		-100 		42.584
v -1 		-96.846 		45.658
v -21.101 		25.404 		10.907
v -1 		-93.691 		38
v -1 		-95.641 		41.95
v -22.191 		26.465 		11.967
v -23.955 		-16.2635 		47.0205
v -23.027 		26.766 		12.269
v 2.317 		-87.382 		42.584
v 2.317 		-91.742 		41.95
v 2.317 		-89.792 		50
v 2.317 		-90.537 		45.658
v 2.317 		-97.59 		50
v 2.317 		-93.691 		47.95
v 2.317 		-100 		42.584
v 2.317 		-96.846 		45.658
v -23.955 		24.749 		10.251
v 2.317 		-95.641 		41.95
v 2.317 		-93.691 		38
v -33.658 		-41.795 		33
v -33.658 		-39.846 		31.975
v -33.658 		-43 		29.292
v -33.658 		-41.423 		30.829
v -33.658 		-39.846 		27
v -33.658 		-40.82 		28.975
v -32 		-36.691 		29.292
v -32 		-38.871 		28.975
v -32 		-37.896 		33
v -32 		-38.268 		30.829
v -32 		-41.795 		33
v -32 		-39.846 		31.975
v -32 		-43 		29.292
v -21.55 		-22.408 		62.089
v -22.69 		-21.998 		62.5
v -32 		-41.423 		30.829
v -32 		-40.82 		28.975
v -32 		-39.846 		27
v -21 		-95 		73.292
v -21 		-97.18 		72.975
v -21 		-96.205 		77
v -21 		-96.577 		74.829
v -21 		-100.104 		77
v -21 		-98.154 		75.975
v -21 		-101.309 		73.292
v -21 		-99.732 		74.829
v -26.359 		-27.089 		57.408
v -21 		-99.129 		72.975
v -21 		-98.154 		71
v -23.955 		-21.856 		62.641
v 22.413 		-28.587 		46.292
v 22.413 		-36.473 		45.146
v 22.413 		-32.947 		59.708
v 22.413 		-34.294 		51.854
v 22.413 		-47.053 		59.708
v 22.413 		-40 		56
v 22.413 		-51.413 		46.292
v 22.413 		-45.706 		51.854
v 22.413 		-40 		38
v 22.413 		-43.527 		45.146
v 28.413 		-28.587 		46.292
v 28.413 		-36.473 		45.146
v 28.413 		-32.947 		59.708
v 28.413 		-34.294 		51.854
v 28.413 		-47.053 		59.708
v 28.413 		-40 		56
v 28.413 		-51.413 		46.292
v 28.413 		-45.706 		51.854
v 28.413 		-43.527 		45.146
v 28.413 		-40 		38
v -51.683 		-66.382 		42.584
v -51.683 		-70.742 		41.95
v -51.683 		-68.792 		50
v -25.219 		-21.998 		62.5
v -26.359 		-22.408 		62.089
v -25.718 		26.465 		11.967
v -24.882 		26.766 		12.269
v -26.382 		25.996 		11.498
v -26.955 		24.749 		10.251
v -20.064 		-23.855 		60.643
v -26.808 		25.404 		10.907
v -25.219 		-27.5 		56.998
v -23.955 		-27.641 		56.856
v -22.69 		-27.5 		56.998
v -20.9572 		-14.132 		49.152
v -21.101 		-13.4865 		49.7975
v -20.064 		-25.643 		58.855
v -21.55 		-11.802 		51.482
v -21.527 		-12.895 		50.389
v -19.864 		-24.749 		59.749
v -20.645 		-12.442 		50.842
v -20.064 		-13.248 		50.036
v -22.69 		-11.391 		51.893
v -22.191 		-12.426 		50.858
v -20.645 		-23.048 		61.449
v -21.55 		-16.482 		46.802
v -22.69 		-16.893 		46.391
v -23.955 		-17.035 		46.249
v -25.219 		-16.893 		46.391
v -26.359 		-16.482 		46.802
v -23.955 		-11.249 		52.035
v -23.027 		-12.1245 		51.1595
v -51.683 		-69.537 		45.658
v -51.683 		-76.59 		50
v -51.683 		-72.691 		47.95
v -51.683 		-79 		42.584
v -51.683 		-75.846 		45.658
v -51.683 		-74.641 		41.95
v -51.683 		-72.691 		38
v -22.191 		23.033 		8.535
v -23.027 		22.731 		8.234
v -21.527 		23.502 		9.004
v -23.955 		-12.0205 		51.2635
v -25.219 		-11.391 		51.893
v -21.101 		24.093 		9.596
v -27.845 		-13.248 		50.036
v -27.264 		-12.442 		50.842
v -23.955 		26.87 		12.373
v -24.576 		-12.0902 		51.1938
v -19.864 		-14.142 		49.142
v -24.882 		-12.1245 		51.1595
v -20.064 		-15.036 		48.248
v -26.359 		-11.802 		51.482
v -20.645 		-15.842 		47.442
v -20.955 		-14.142 		49.142
v -23.027 		-16.1595 		47.1245
v -25.718 		-12.426 		50.858
v -22.191 		-15.858 		47.426
v -27.264 		-23.048 		61.449
v -27.845 		-23.855 		60.643
v -26.382 		-12.895 		50.389
v -21.527 		-15.389 		47.895
v -20.955 		24.749 		10.251
v -26.808 		-13.4865 		49.7975
v -21.101 		-14.7975 		48.4865
v -26.9528 		-14.132 		49.152
v -26.382 		23.502 		9.004
v -26.808 		24.093 		9.596
v -25.718 		23.033 		8.535
v -24.882 		22.731 		8.234
v -26.955 		-14.142 		49.142
v -28.045 		-24.749 		59.749
v -27.845 		-25.643 		58.855
v -27.264 		-26.449 		58.048
v -26.808 		-14.7975 		48.4865
v -26.382 		-15.389 		47.895
v -25.718 		-15.858 		47.426
v -27.264 		-15.842 		47.442
v -27.845 		-15.036 		48.248
v -28.045 		-14.142 		49.142
# 186 vertices

g group_0_2829873

usemtl color_2829873
s 0

f 25 	176 	27
f 44 	27 	30
f 117 	54 	115
f 169 	40 	121
f 130 	125 	43
f 171 	151 	161
f 177 	172 	115
f 33 	125 	40
f 122 	40 	125
f 43 	45 	130
f 33 	43 	125
f 138 	45 	149
f 171 	168 	151
f 167 	114 	117
f 115 	174 	177
f 117 	170 	167
f 117 	115 	172
f 181 	177 	174
f 173 	182 	174
f 138 	130 	45
f 154 	149 	45
f 149 	154 	155
f 157 	155 	113
f 113 	155 	154
f 30 	27 	176
f 167 	112 	114
f 30 	162 	44
f 157 	113 	163
f 112 	163 	113
f 54 	175 	173
f 148 	151 	168
f 54 	146 	147
f 112 	167 	163
f 169 	161 	151
f 54 	148 	146
f 40 	169 	54
f 151 	148 	54
f 122 	121 	40
f 147 	30 	54
f 169 	151 	54
f 175 	176 	183
f 54 	33 	40
f 112 	54 	114
f 164 	147 	146
f 174 	54 	173
f 146 	148 	164
f 54 	43 	33
f 181 	174 	182
f 175 	183 	173
f 54 	30 	176
f 117 	114 	54
f 54 	176 	175
f 54 	154 	45
f 161 	169 	121
f 168 	164 	148
f 54 	112 	113
f 54 	174 	115
f 113 	154 	54
f 162 	30 	147
f 54 	45 	43
f 147 	164 	162
f 170 	117 	172
f 182 	173 	183
f 25 	183 	176
# 64 faces

g group_0_16448250

usemtl color_16448250
s 0

f 71 	70 	124
f 132 	37 	133
f 120 	37 	21
f 119 	134 	120
f 21 	110 	111
f 165 	166 	21
f 133 	37 	120
f 166 	178 	21
f 127 	128 	125
f 111 	165 	21
f 83 	118 	21
f 21 	118 	119
f 120 	21 	119
f 83 	136 	118
f 31 	123 	21
f 124 	127 	125
f 125 	130 	124
f 116 	21 	126
f 123 	126 	21
f 121 	122 	128
f 122 	125 	128
f 37 	31 	21
f 70 	71 	21
f 21 	86 	110
f 129 	86 	71
f 71 	86 	21
f 130 	138 	124
f 129 	71 	124
f 131 	127 	124
f 131 	70 	21
f 134 	44 	133
f 120 	134 	133
f 131 	21 	116
f 123 	158 	126
f 86 	129 	137
f 156 	128 	126
f 118 	136 	135
f 119 	118 	135
f 135 	134 	119
f 184 	182 	136
f 137 	110 	86
f 129 	124 	138
f 138 	149 	129
f 137 	129 	149
f 127 	131 	128
f 116 	128 	131
f 137 	150 	110
f 150 	159 	111
f 111 	110 	150
f 149 	155 	137
f 156 	126 	158
f 150 	137 	155
f 37 	132 	31
f 159 	167 	153
f 153 	167 	152
f 116 	126 	128
f 150 	157 	159
f 163 	159 	157
f 155 	157 	150
f 160 	168 	158
f 158 	171 	156
f 161 	156 	171
f 161 	121 	156
f 128 	156 	121
f 162 	164 	132
f 132 	133 	162
f 44 	162 	133
f 27 	44 	134
f 25 	27 	135
f 158 	123 	160
f 31 	132 	160
f 163 	167 	159
f 160 	132 	168
f 164 	168 	132
f 160 	123 	31
f 170 	152 	167
f 131 	124 	70
f 171 	158 	168
f 186 	152 	172
f 153 	166 	165
f 111 	159 	165
f 153 	165 	159
f 166 	152 	178
f 172 	177 	186
f 179 	21 	178
f 180 	83 	21
f 179 	180 	21
f 186 	185 	178
f 181 	182 	185
f 184 	185 	182
f 152 	166 	153
f 186 	178 	152
f 183 	136 	182
f 185 	180 	179
f 136 	83 	180
f 183 	25 	136
f 185 	184 	180
f 180 	184 	136
f 134 	135 	27
f 135 	136 	25
f 186 	177 	185
f 170 	172 	152
f 181 	185 	177
f 179 	178 	185
# 104 faces

g group_0_16768282

usemtl color_16768282
s 0

f 13 	14 	16
f 14 	12 	16
f 11 	12 	14
f 12 	4 	16
f 7 	8 	12
f 8 	4 	12
f 3 	4 	8
f 15 	16 	4
f 17 	18 	20
f 18 	10 	20
f 9 	10 	18
f 10 	6 	20
f 5 	6 	10
f 2 	20 	6
f 1 	2 	6
f 19 	20 	2
f 38 	39 	42
f 39 	36 	42
f 32 	36 	39
f 36 	29 	42
f 28 	29 	36
f 26 	42 	29
f 24 	26 	29
f 41 	42 	26
f 52 	55 	53
f 47 	49 	55
f 56 	47 	55
f 53 	55 	51
f 46 	49 	47
f 51 	55 	49
f 48 	51 	49
f 50 	53 	51
f 24 	46 	47
f 24 	47 	26
f 56 	41 	26
f 56 	26 	47
f 59 	60 	62
f 60 	58 	62
f 57 	58 	60
f 58 	23 	62
f 34 	35 	58
f 35 	23 	58
f 22 	23 	35
f 61 	62 	23
f 28 	48 	49
f 28 	49 	29
f 49 	46 	29
f 24 	29 	46
f 36 	32 	50
f 36 	50 	51
f 69 	73 	72
f 64 	68 	73
f 74 	64 	73
f 72 	73 	68
f 63 	66 	64
f 66 	68 	64
f 65 	68 	66
f 67 	72 	68
f 51 	48 	36
f 28 	36 	48
f 22 	63 	64
f 22 	64 	23
f 39 	38 	52
f 39 	52 	53
f 53 	50 	39
f 32 	39 	50
f 74 	61 	23
f 74 	23 	64
f 42 	41 	56
f 42 	56 	55
f 42 	55 	52
f 42 	52 	38
f 34 	65 	66
f 34 	66 	35
f 81 	84 	82
f 76 	80 	84
f 85 	76 	84
f 82 	84 	80
f 75 	78 	76
f 78 	80 	76
f 77 	80 	78
f 79 	82 	80
f 3 	75 	76
f 3 	76 	4
f 85 	15 	4
f 85 	4 	76
f 7 	77 	78
f 7 	78 	8
f 66 	63 	35
f 22 	35 	63
f 78 	75 	8
f 3 	8 	75
f 12 	11 	79
f 12 	79 	80
f 80 	77 	12
f 7 	12 	77
f 14 	13 	81
f 14 	81 	82
f 82 	79 	14
f 11 	14 	79
f 16 	15 	85
f 16 	85 	84
f 16 	84 	81
f 16 	81 	13
f 58 	57 	67
f 58 	67 	68
f 68 	65 	58
f 34 	58 	65
f 93 	94 	96
f 92 	90 	94
f 91 	92 	94
f 96 	94 	88
f 89 	90 	92
f 88 	94 	90
f 87 	88 	90
f 95 	96 	88
f 60 	59 	69
f 60 	69 	72
f 72 	67 	60
f 57 	60 	67
f 62 	61 	74
f 62 	74 	73
f 62 	73 	69
f 62 	69 	59
f 103 	105 	104
f 105 	98 	104
f 106 	98 	105
f 98 	100 	104
f 97 	100 	98
f 102 	104 	100
f 99 	102 	100
f 101 	104 	102
f 87 	97 	98
f 87 	98 	88
f 106 	95 	88
f 106 	88 	98
f 89 	99 	100
f 89 	100 	90
f 100 	97 	90
f 87 	90 	97
f 92 	91 	101
f 92 	101 	102
f 102 	99 	92
f 89 	92 	99
f 94 	93 	103
f 94 	103 	104
f 104 	101 	94
f 91 	94 	101
f 96 	95 	106
f 96 	106 	105
f 96 	105 	103
f 96 	103 	93
f 142 	144 	143
f 108 	139 	144
f 145 	108 	144
f 143 	144 	141
f 107 	139 	108
f 141 	144 	139
f 109 	141 	139
f 140 	143 	141
f 1 	107 	108
f 1 	108 	2
f 145 	19 	2
f 145 	2 	108
f 5 	109 	139
f 5 	139 	6
f 139 	107 	6
f 1 	6 	107
f 10 	9 	140
f 10 	140 	141
f 141 	109 	10
f 5 	10 	109
f 18 	17 	142
f 18 	142 	143
f 143 	140 	18
f 9 	18 	140
f 20 	19 	145
f 20 	145 	144
f 20 	144 	142
f 20 	142 	17
# 180 faces

 #end of obj_0

